# Blender 4.1.1
# www.blender.org
mtllib Star.mtl
o Circle
v 0.000000 0.000000 -1.000000
v -0.951057 0.000000 -0.309017
v -0.587785 0.000000 0.809017
v 0.587785 0.000000 0.809017
v 0.951057 0.000000 -0.309017
v -0.237764 0.000000 -0.327254
v -0.384710 0.000000 0.125000
v 0.000000 0.000000 0.404509
v 0.384710 0.000000 0.125000
v 0.237764 0.000000 -0.327254
v 0.000000 0.250000 0.000000
v 0.000000 -0.250000 0.000000
vn -0.5658 -0.7999 -0.2000
vn -0.3650 0.7999 0.4763
vn 0.3650 0.7999 0.4763
vn -0.0153 0.7999 -0.5999
vn 0.3402 0.7999 0.4944
vn 0.5658 0.7999 -0.2000
vn -0.5753 0.7999 -0.1708
vn 0.5753 0.7999 -0.1708
vn -0.5658 0.7999 -0.2000
vn -0.3402 0.7999 0.4944
vn 0.0153 0.7999 -0.5999
vn -0.3402 -0.7999 0.4944
vn 0.0153 -0.7999 -0.5999
vn -0.3650 -0.7999 0.4763
vn 0.3650 -0.7999 0.4763
vn -0.0153 -0.7999 -0.5999
vn 0.3402 -0.7999 0.4944
vn 0.5658 -0.7999 -0.2000
vn -0.5753 -0.7999 -0.1708
vn 0.5753 -0.7999 -0.1708
vt 0.000000 0.000000
s 0
usemtl Yellow
f 6/1/1 1/1/1 12/1/1
f 2/1/2 7/1/2 11/1/2
f 9/1/3 5/1/3 11/1/3
f 6/1/4 2/1/4 11/1/4
f 3/1/5 8/1/5 11/1/5
f 10/1/6 1/1/6 11/1/6
f 7/1/7 3/1/7 11/1/7
f 4/1/8 9/1/8 11/1/8
f 1/1/9 6/1/9 11/1/9
f 8/1/10 4/1/10 11/1/10
f 5/1/11 10/1/11 11/1/11
f 4/1/12 8/1/12 12/1/12
f 10/1/13 5/1/13 12/1/13
f 7/1/14 2/1/14 12/1/14
f 5/1/15 9/1/15 12/1/15
f 2/1/16 6/1/16 12/1/16
f 8/1/17 3/1/17 12/1/17
f 1/1/18 10/1/18 12/1/18
f 3/1/19 7/1/19 12/1/19
f 9/1/20 4/1/20 12/1/20
